HIERARCHY
ROOT Pelvis
{
	OFFSET 0.000000 0.000000 0.000000
	CHANNELS 6 Xposition Yposition Zposition Xrotation Yrotation Zrotation
	JOINT LeftUpLeg_virtual
	{
		OFFSET 0.000000 0.000000 0.000000
		CHANNELS 3 Xrotation Yrotation Zrotation
		JOINT LeftUpLeg
		{
			OFFSET 8.479700 -4.795502 -0.379100
			CHANNELS 3 Xrotation Yrotation Zrotation
			JOINT LeftLeg
			{
				OFFSET 0.024144 -32.555107 0.112900
				CHANNELS 3 Xrotation Yrotation Zrotation
				JOINT LeftFoot
				{
					OFFSET -0.024144 -32.638630 -3.012600
					CHANNELS 3 Xrotation Yrotation Zrotation
					JOINT LeftToeBase
					{
						OFFSET 0.970200 -13.225400 11.864200
						CHANNELS 3 Xrotation Yrotation Zrotation
						End Site
						{
							OFFSET 0 0 0
						}
					}
				}
			}
		}
	}
	JOINT RightUpLeg_virtual
	{
		OFFSET 0.000000 0.000000 0.000000
		CHANNELS 3 Xrotation Yrotation Zrotation
		JOINT RightUpLeg
		{
			OFFSET -8.479700 -4.795502 -0.379100
			CHANNELS 3 Xrotation Yrotation Zrotation
			JOINT RightLeg
			{
				OFFSET -0.023144 -32.555092 0.112900
				CHANNELS 3 Xrotation Yrotation Zrotation
				JOINT RightFoot
				{
					OFFSET 0.023144 -32.638641 -3.012700
					CHANNELS 3 Xrotation Yrotation Zrotation
					JOINT RightToeBase
					{
						OFFSET -0.970200 -13.225400 11.864200
						CHANNELS 3 Xrotation Yrotation Zrotation
						End Site
						{
							OFFSET 0 0 0
						}
					}
				}
			}
		}
	}
	JOINT Hips_virtual
	{
		OFFSET 0.000000 0.000000 0.000000
		CHANNELS 3 Xrotation Yrotation Zrotation
		JOINT Hips
		{
			OFFSET -0.000000 -0.000000 -0.000000
			CHANNELS 3 Xrotation Yrotation Zrotation
			JOINT Spine
			{
				OFFSET 0.000000 7.722000 1.166200
				CHANNELS 3 Xrotation Yrotation Zrotation
				JOINT Spine1
				{
					OFFSET 0.000000 12.024101 0.248800
					CHANNELS 3 Xrotation Yrotation Zrotation
					JOINT Spine2
					{
						OFFSET 0.000000 11.502998 -0.491200
						CHANNELS 3 Xrotation Yrotation Zrotation
						JOINT Neck_virtual
						{
							OFFSET 0.000000 0.000000 0.000000
							CHANNELS 3 Xrotation Yrotation Zrotation
							JOINT Neck
							{
								OFFSET 0.000000 18.430702 -3.123100
								CHANNELS 3 Xrotation Yrotation Zrotation
								JOINT Head
								{
									OFFSET 0.000000 9.051102 1.034000
									CHANNELS 3 Xrotation Yrotation Zrotation
									End Site
									{
										OFFSET 0 0 0
									}
								}
							}
						}
						JOINT LeftShoulder_virtual
						{
							OFFSET 0.000000 0.000000 0.000000
							CHANNELS 3 Xrotation Yrotation Zrotation
							JOINT LeftShoulder
							{
								OFFSET 6.197800 13.665199 -4.064700
								CHANNELS 3 Xrotation Yrotation Zrotation
								JOINT LeftArm
								{
									OFFSET 7.778100 -0.187103 -1.709300
									CHANNELS 3 Xrotation Yrotation Zrotation
									JOINT LeftForeArm
									{
										OFFSET 22.049376 0.000000 0.000000
										CHANNELS 3 Xrotation Yrotation Zrotation
										JOINT LeftHand
										{
											OFFSET 23.009392 0.000000 0.000000
											CHANNELS 3 Xrotation Yrotation Zrotation
											End Site
											{
												OFFSET 0 0 0
											}
										}
									}
								}
							}
						}
						JOINT RightShoulder_virtual
						{
							OFFSET 0.000000 0.000000 0.000000
							CHANNELS 3 Xrotation Yrotation Zrotation
							JOINT RightShoulder
							{
								OFFSET -6.197800 13.665199 -4.064700
								CHANNELS 3 Xrotation Yrotation Zrotation
								JOINT RightArm
								{
									OFFSET -7.778100 -0.187103 -1.709300
									CHANNELS 3 Xrotation Yrotation Zrotation
									JOINT RightForeArm
									{
										OFFSET -22.049376 0.000000 0.000000
										CHANNELS 3 Xrotation Yrotation Zrotation
										JOINT RightHand
										{
											OFFSET -23.009392 0.000000 0.000000
											CHANNELS 3 Xrotation Yrotation Zrotation
											End Site
											{
												OFFSET 0 0 0
											}
										}
									}
								}
							}
						}
					}
				}
			}
		}
	}
}
MOTION
Frames: 5
Frame Time: 0.03333333
9.807100 82.235420 -2.631342 0.000000 0.000000 0.000000 -0.400209 -19.198096 -2.350257 -12.467772 6.828593 -1.424137 18.441999 9.332284 2.685064 -8.299670 19.291895 1.998071 0.000000 0.000000 0.000000 -0.400209 -19.198096 -2.350257 -13.721937 -7.315828 -11.420536 14.166033 2.791901 2.455480 -11.906183 -3.538183 6.240565 0.000000 0.000000 0.000000 -0.400209 -19.198096 -2.350257 0.000000 -0.000001 0.000000 4.345708 1.231654 -2.330250 0.212745 0.451142 -0.248039 0.000000 0.000000 0.000000 0.209996 0.457548 -0.249457 -0.676048 0.363728 3.241258 0.000000 0.000000 0.000000 0.209996 0.457548 -0.249457 2.666471 -4.458574 -11.991965 -11.925380 -18.438343 -60.942629 -0.000001 -15.296885 0.000030 0.000000 0.000000 0.000000 0.209996 0.457548 -0.249457 2.229752 0.129002 15.927380 5.674420 -0.408655 64.436961 0.000005 15.408089 0.000015 0.000000 0.000000 0.000000 
10.018071 82.232170 -2.536310 0.000000 0.000000 0.000000 -0.322270 -19.498558 -2.459817 -12.503915 6.816758 -1.480182 18.394664 9.324224 2.691117 -8.283478 19.582046 2.148614 0.000000 0.000000 0.000000 -0.322270 -19.498558 -2.459817 -13.754404 -7.279477 -11.389854 14.026803 2.876485 2.462353 -12.072731 -3.538653 6.092624 0.000000 0.000000 0.000000 -0.322270 -19.498558 -2.459817 0.000000 0.000000 0.000000 4.284319 0.976799 -2.400547 0.189583 0.383778 -0.265577 0.000000 0.000000 0.000000 0.187300 0.390523 -0.267591 -0.708657 0.408955 3.345581 0.000000 0.000000 0.000000 0.187300 0.390523 -0.267591 2.653987 -4.597922 -11.892585 -12.075091 -19.153017 -61.241218 -0.000003 -15.715096 0.000008 0.000000 0.000000 0.000000 0.187300 0.390523 -0.267591 2.263679 -0.037344 16.070484 5.438913 -0.171342 64.671482 -0.000006 15.685833 -0.000005 0.000000 0.000000 0.000000 
10.216956 82.230400 -2.444155 0.000000 0.000000 0.000000 -0.220159 -19.782562 -2.548615 -12.554368 6.800840 -1.541622 18.329994 9.315554 2.697848 -8.264936 19.868030 2.294795 0.000000 0.000000 0.000000 -0.220159 -19.782562 -2.548615 -13.803634 -7.243989 -11.364123 13.889458 2.915171 2.455776 -12.245720 -3.541499 5.964697 0.000000 0.000000 0.000000 -0.220159 -19.782562 -2.548615 0.000000 0.000000 0.000000 4.208853 0.704947 -2.495290 0.165082 0.312359 -0.289361 0.000000 0.000000 0.000000 0.163353 0.319518 -0.292049 -0.743324 0.449651 3.455308 0.000000 0.000000 0.000000 0.163353 0.319518 -0.292049 2.633635 -4.716144 -11.762449 -12.145289 -19.959022 -61.514610 0.000002 -16.226678 0.000002 0.000000 0.000000 0.000000 0.163353 0.319518 -0.292049 2.301185 -0.222087 16.229417 5.160327 0.078140 64.897807 -0.000003 15.935550 0.000018 0.000000 0.000000 0.000000 
10.404631 82.231178 -2.354797 0.000000 0.000000 0.000000 -0.083858 -20.058363 -2.620607 -12.633184 6.772098 -1.611150 18.256575 9.305726 2.719309 -8.262704 20.166868 2.436600 0.000000 0.000000 0.000000 -0.083858 -20.058363 -2.620607 -13.870603 -7.207373 -11.332500 13.727379 2.933000 2.447362 -12.394352 -3.543061 5.834937 0.000000 0.000000 0.000000 -0.083858 -20.058363 -2.620607 0.000000 0.000002 0.000000 4.110682 0.427662 -2.611999 0.138035 0.240250 -0.315974 0.000000 0.000000 0.000000 0.136930 0.247835 -0.319406 -0.779925 0.485274 3.569736 0.000000 0.000000 0.000000 0.136930 0.247835 -0.319406 2.611132 -4.805595 -11.630850 -12.175097 -20.855182 -61.745265 0.000003 -16.823741 -0.000010 0.000000 0.000000 0.000000 0.136930 0.247835 -0.319406 2.342157 -0.439310 16.405411 4.855270 0.354272 65.099175 -0.000002 16.165734 0.000014 0.000000 0.000000 0.000000 
10.580535 82.235077 -2.268270 0.000000 0.000000 0.000000 0.092009 -20.327838 -2.682787 -12.750764 6.732744 -1.676737 18.181258 9.294959 2.755691 -8.275547 20.470181 2.571052 0.000000 0.000000 0.000000 0.092009 -20.327838 -2.682787 -13.951335 -7.170265 -11.283693 13.518339 2.938662 2.446015 -12.491142 -3.540834 5.690431 0.000000 0.000000 0.000000 0.092009 -20.327838 -2.682787 0.000000 0.000001 0.000000 3.984149 0.155128 -2.746487 0.108366 0.169804 -0.345939 0.000000 0.000000 0.000000 0.107950 0.177826 -0.350154 -0.816815 0.513496 3.692738 0.000000 0.000000 0.000000 0.107950 0.177826 -0.350154 2.588619 -4.869842 -11.506930 -12.196942 -21.829841 -61.937221 -0.000005 -17.471484 -0.000004 0.000000 0.000000 0.000000 0.107950 0.177826 -0.350154 2.389268 -0.693201 16.609290 4.537153 0.660912 65.259575 0.000005 16.375640 0.000001 0.000000 0.000000 0.000000 
